# xmcd
#
# Track frame offsets:
#	150
#	8749
#	18362
#	26445
#	37863
#	48541
#	57992
#	66068
#	76621
#	85363
#	98062
#	106009
#	116833
#	126955
#	135827
#	144512
#	154677
#	163030
#	172647
#	184392
#	194918
#	204237
#	214864
#	235775
#	247289
#
# Disc length: 3457 seconds
#
# Revision: 1
# Processed by: cddbd v1.5.2PL0 Copyright (c) Steve Scherf et al.
# Submitted via: audiograbber 1.83.01
#
DISCID=4a0d7f19
DTITLE=Roger Miller - Roger Miller - The Definitive Collection - Disc 1
DYEAR=2015
DGENRE=Country
TTITLE0=Dang Me
TTITLE1=Chug-A-Lug
TTITLE2=Do-Wacka-Do
TTITLE3=King Of The Road
TTITLE4=Engine Engine 9
TTITLE5=One Dyin' And Buryin'
TTITLE6=It Just Happened Just That Way
TTITLE7=Kansas City Star
TTITLE8=England Swings
TTITLE9=The Last Word In Lonesome Is Me
TTITLE10=In The Summertime
TTITLE11=Husbands And Wives
TTITLE12=I've Been A Long Time Leavin'
TTITLE13=You Can't Roller Skate In A Buffalo Herd
TTITLE14=My Uncle Used To Love Me But She Died
TTITLE15=Heartbreak Hotel
TTITLE16=Billy Bayou
TTITLE17=Train Of Life
TTITLE18=Walkin' In The Sunshine
TTITLE19=The Ballad Of Waterhole 3 (Code Of The West)
TTITLE20=Old Toy Trains
TTITLE21=Little Children Run And Play
TTITLE22=Vance
TTITLE23=By The Time I Get To Phoenix
TTITLE24=Little Green Apples
EXTD=
EXTT0=
EXTT1=
EXTT2=
EXTT3=
EXTT4=
EXTT5=
EXTT6=
EXTT7=
EXTT8=
EXTT9=
EXTT10=
EXTT11=
EXTT12=
EXTT13=
EXTT14=
EXTT15=
EXTT16=
EXTT17=
EXTT18=
EXTT19=
EXTT20=
EXTT21=
EXTT22=
EXTT23=
EXTT24=
PLAYORDER=
